<?xml version="1.0" standalone="no"?>
<!DOCTYPE svg PUBLIC "-//W3C//DTD SVG 20010904//EN"
 "http://www.w3.org/TR/2001/REC-SVG-20010904/DTD/svg10.dtd">
<svg version="1.0" xmlns="http://www.w3.org/2000/svg"
 width="714.000000pt" height="735.000000pt" viewBox="0 0 714.000000 735.000000"
 preserveAspectRatio="xMidYMid meet">
<metadata>
Created by potrace 1.15, written by Peter Selinger 2001-2017
</metadata>
<g transform="translate(0.000000,735.000000) scale(0.100000,-0.100000)"
fill="#000000" stroke="none">
<path d="M2467 7336 c-4 -10 27 -23 116 -51 137 -42 274 -91 362 -130 l59 -26
-50 -28 c-196 -107 -366 -299 -485 -547 -27 -57 -49 -108 -49 -113 0 -17 34
-22 43 -6 5 9 29 46 54 83 171 251 357 406 567 471 111 34 128 31 228 -44 100
-75 161 -141 223 -240 211 -337 103 -778 -353 -1445 -193 -283 -419 -571 -952
-1215 -487 -588 -671 -822 -859 -1090 -62 -88 -116 -161 -120 -163 -9 -3 -151
187 -218 293 -408 645 -462 1258 -150 1720 114 169 296 305 469 351 70 18 202
18 267 -2 111 -33 207 -118 270 -241 42 -82 72 -212 82 -356 5 -77 7 -147 4
-158 -5 -14 -1 -19 14 -19 29 0 35 47 28 204 -13 272 -94 462 -248 578 -77 58
-148 81 -267 86 -121 5 -198 -8 -300 -50 -266 -110 -488 -367 -590 -683 -50
-153 -57 -211 -57 -450 1 -189 4 -234 23 -323 74 -343 245 -696 502 -1040 l62
-82 -85 -143 c-345 -581 -540 -1051 -621 -1497 -13 -71 -46 -331 -46 -361 0
-19 30 -8 35 14 92 393 191 655 394 1052 121 236 232 426 364 625 49 74 91
137 93 138 1 2 47 -43 100 -100 162 -171 491 -484 500 -475 3 3 17 69 30 148
68 403 198 746 422 1116 198 327 423 605 912 1128 560 598 768 860 913 1150
116 231 161 410 160 630 -1 257 -69 475 -221 705 -213 323 -574 489 -925 426
l-96 -18 -63 25 c-131 53 -493 167 -529 167 -4 0 -9 -6 -12 -14z m963 -346
c62 -17 175 -75 240 -125 222 -171 369 -480 370 -775 0 -166 -38 -306 -135
-500 -127 -253 -266 -430 -894 -1140 -617 -697 -918 -1146 -1125 -1676 -44
-115 -93 -272 -145 -469 l-8 -30 -173 171 -173 171 164 229 c208 291 568 770
920 1224 459 592 665 873 826 1125 319 500 443 831 430 1145 -9 224 -74 375
-227 530 -47 48 -101 99 -120 114 -36 28 -36 28 50 6z"/>
<path d="M6296 5953 c-61 -125 -140 -214 -231 -261 -82 -41 -113 -45 -430 -52
-349 -8 -388 -14 -495 -87 -166 -112 -250 -280 -250 -499 0 -84 3 -103 16
-108 27 -10 30 -8 90 67 114 141 218 233 344 300 93 50 171 73 370 107 96 16
199 37 229 46 92 26 187 81 246 139 65 66 135 202 159 312 20 90 20 93 -2 93
-12 0 -27 -19 -46 -57z"/>
<path d="M583 5210 c-64 -39 -84 -136 -40 -201 30 -44 60 -59 124 -59 44 0 58
5 88 31 68 60 68 158 0 218 -30 26 -44 31 -88 31 -34 0 -63 -7 -84 -20z"/>
<path d="M255 4866 c-92 -41 -131 -155 -85 -245 67 -131 252 -132 318 -1 27
54 28 101 3 155 -33 71 -86 105 -164 105 -23 -1 -55 -7 -72 -14z"/>
<path d="M4257 4796 c-7 -18 3 -27 149 -124 116 -78 210 -165 308 -285 62 -77
144 -253 166 -357 31 -147 28 -305 -10 -448 -92 -350 -365 -654 -718 -799
-231 -95 -452 -117 -672 -67 -134 30 -333 110 -405 163 -81 60 -236 161 -246
161 -19 0 -21 -31 -4 -58 10 -15 54 -78 98 -140 69 -98 94 -124 196 -204 186
-146 363 -218 587 -238 124 -11 137 -10 273 14 124 22 159 33 267 83 320 148
603 451 738 791 46 113 55 150 81 302 13 78 14 119 7 230 -9 116 -16 153 -51
260 -26 79 -55 145 -79 180 -21 30 -57 83 -81 118 -25 36 -92 106 -156 163
-94 82 -140 114 -269 184 -86 47 -160 85 -165 85 -5 0 -11 -6 -14 -14z"/>
<path d="M4167 4353 c-4 -3 -7 -13 -7 -20 0 -8 -12 -40 -27 -71 -30 -64 -98
-142 -152 -174 -76 -45 -181 -164 -166 -188 9 -15 84 -12 145 6 103 31 209
181 232 331 14 88 2 144 -25 116z"/>
<path d="M119 4327 c-26 -14 -56 -42 -75 -69 -129 -190 73 -422 281 -324 59
27 77 46 104 106 49 108 5 237 -100 290 -55 29 -152 27 -210 -3z"/>
<path d="M5795 4130 c-166 -23 -324 -130 -413 -280 -69 -115 -52 -129 99 -81
152 48 257 64 389 58 137 -6 190 -21 415 -118 205 -88 264 -103 390 -102 79 0
112 5 160 23 77 29 174 93 250 163 56 52 59 56 43 72 -15 17 -18 16 -45 -2
-92 -66 -224 -113 -313 -113 -125 0 -191 29 -424 185 -88 59 -185 119 -216
135 -108 54 -224 75 -335 60z"/>
<path d="M3534 3622 c-23 -26 -61 -79 -86 -117 -53 -82 -119 -146 -205 -199
-70 -43 -83 -69 -30 -60 174 30 343 129 388 229 30 65 21 195 -13 195 -7 0
-32 -22 -54 -48z"/>
<path d="M4020 3594 c-32 -13 -71 -60 -81 -96 -19 -74 27 -156 97 -174 108
-27 207 71 176 174 -18 60 -62 95 -124 98 -29 2 -60 1 -68 -2z"/>
<path d="M5055 2779 c-22 -5 -72 -23 -111 -40 -63 -27 -70 -33 -66 -54 3 -19
19 -28 95 -54 182 -60 311 -131 420 -231 69 -63 122 -135 212 -290 149 -255
233 -340 392 -392 53 -17 92 -22 178 -22 144 -1 205 9 205 34 0 15 -11 19 -62
25 -171 18 -283 67 -363 158 -57 64 -86 124 -170 352 -87 235 -115 285 -200
370 -74 74 -144 116 -236 140 -60 16 -230 18 -294 4z"/>
<path d="M2832 2212 c-14 -9 -32 -103 -32 -166 0 -70 -50 -248 -95 -338 -62
-123 -104 -175 -275 -337 -228 -217 -290 -325 -290 -510 0 -129 59 -340 92
-329 10 4 12 38 10 144 -3 118 -1 147 16 195 42 118 110 194 265 296 56 36
146 95 199 130 114 76 215 178 252 258 88 184 65 418 -58 588 -53 74 -63 82
-84 69z"/>
<path d="M3875 2120 c-7 -23 3 -43 61 -128 165 -238 213 -449 170 -752 -25
-180 -29 -260 -16 -345 22 -147 77 -245 192 -342 64 -55 190 -127 202 -116 14
14 3 32 -73 110 -112 115 -144 184 -149 318 -4 108 -1 119 103 450 32 103 38
137 42 240 4 105 2 128 -17 185 -70 207 -228 336 -482 394 -21 5 -28 2 -33
-14z"/>
</g>
</svg>
